<svg xmlns="http://www.w3.org/2000/svg" xmlns:xlink="http://www.w3.org/1999/xlink" version="1.1" width="500pt" height="500pt" viewBox="0 0 500 500">
<defs>
<clipPath id="clip_1">
<path transform="matrix(1,0,0,-1,0,500)" d="M0 500H500V0H0Z"/>
</clipPath>
</defs>
<g id="layer_1" data-name="Layer 1">
</g>
<g id="layer_1" data-name="Layer 2">
<g clip-path="url(#clip_1)">
<path transform="matrix(1,0,0,-1,255.8307,251.1659)" d="M0 0C1.017 0 1.994 .178 2.93 .534L-1.057 3.946 2.971 8.467 6.876 4.932C7.177 5.781 7.328 6.713 7.328 7.727V7.81C7.328 8.851 7.15 9.844 6.794 10.79 6.437 11.735 5.931 12.57 5.273 13.297 4.615 14.023 3.827 14.598 2.909 15.023 1.991 15.448 .984 15.661-.112 15.661-1.208 15.661-2.202 15.448-3.092 15.023-3.982 14.598-4.75 14.03-5.394 13.317-6.038 12.605-6.531 11.782-6.873 10.851-7.216 9.919-7.387 8.933-7.387 7.892V7.81C-7.387 6.768-7.209 5.775-6.851 4.83-6.493 3.884-5.991 3.055-5.344 2.343-4.698 1.63-3.921 1.062-3.013 .637-2.105 .212-1.101 0 0 0M8.684-4.522C7.451-5.317 6.095-5.94 4.615-6.392 3.136-6.844 1.574-7.07-.071-7.07-2.29-7.07-4.345-6.68-6.236-5.899-8.127-5.117-9.758-4.056-11.128-2.713-12.498-1.371-13.573 .205-14.354 2.014-15.135 3.823-15.526 5.754-15.526 7.81V7.892C-15.526 9.947-15.135 11.885-14.354 13.708-13.573 15.53-12.484 17.12-11.087 18.476-9.689 19.832-8.045 20.901-6.154 21.682-4.263 22.463-2.208 22.854 .012 22.854 2.231 22.854 4.286 22.463 6.177 21.682 8.068 20.901 9.698 19.839 11.069 18.497 12.438 17.154 13.514 15.578 14.295 13.77 15.076 11.961 15.467 10.029 15.467 7.974V7.892C15.467 6.357 15.247 4.891 14.809 3.493 14.37 2.096 13.74 .808 12.918-.37L15.878-2.877 11.849-7.358Z" fill="#1a2b49"/>
<path transform="matrix(1,0,0,-1,288.3965,258.1948)" d="M0 0C-2.055 0-3.905 .261-5.549 .781-7.193 1.301-8.591 2.103-9.742 3.185-10.893 4.268-11.776 5.638-12.393 7.296-13.009 8.954-13.318 10.906-13.318 13.153V29.307H-5.179V13.318C-5.179 11.235-4.704 9.694-3.752 8.693-2.8 7.693-1.522 7.193 .082 7.193 1.687 7.193 2.964 7.672 3.916 8.632 4.868 9.591 5.343 11.084 5.343 13.112V29.307H13.482V13.359C13.482 11.029 13.16 9.022 12.516 7.337 11.872 5.652 10.968 4.268 9.803 3.185 8.638 2.103 7.227 1.301 5.569 .781 3.911 .261 2.055 0 0 0" fill="#1a2b49"/>
<path transform="matrix(1,0,0,-1,0,500)" d="M306.77 271.112H314.785V242.339H306.77Z" fill="#1a2b49"/>
<path transform="matrix(1,0,0,-1,331.8022,243.19199)" d="M0 0C1.424 0 2.541 .337 3.35 1.012 4.158 1.687 4.562 2.603 4.562 3.76V3.843C4.562 5.083 4.158 6.027 3.35 6.674 2.541 7.322 1.411 7.646-.041 7.646H-3.782V0ZM-11.756 14.304H.576C2.384 14.304 4.028 14.078 5.508 13.626 6.988 13.174 8.248 12.516 9.289 11.653 10.331 10.79 11.132 9.728 11.694 8.467 12.255 7.207 12.537 5.782 12.537 4.193V4.11C12.537 2.411 12.228 .918 11.612-.37 10.995-1.658 10.139-2.74 9.043-3.617 7.947-4.494 6.638-5.152 5.117-5.59 3.597-6.029 1.945-6.248 .164-6.248H-3.782V-14.468H-11.756Z" fill="#1a2b49"/>
<path transform="matrix(1,0,0,-1,249.5237,274.1344)" d="M0 0C.075-.16 .211-.31 .41-.449 .608-.588 .882-.717 1.23-.834 1.578-.952 2.021-1.075 2.557-1.203 3.146-1.353 3.669-1.519 4.125-1.7 4.58-1.882 4.958-2.104 5.258-2.366 5.558-2.628 5.786-2.933 5.942-3.28 6.097-3.628 6.175-4.037 6.175-4.507 6.175-5.042 6.077-5.518 5.881-5.935 5.684-6.352 5.411-6.705 5.061-6.993 4.711-7.282 4.291-7.501 3.8-7.651 3.309-7.8 2.769-7.876 2.181-7.876 1.315-7.876 .486-7.728-.305-7.435-1.097-7.14-1.829-6.688-2.502-6.079L-1.316-4.668C-.77-5.138-.22-5.499 .337-5.75 .892-6.002 1.523-6.127 2.229-6.127 2.839-6.127 3.323-5.999 3.681-5.742 4.039-5.486 4.218-5.138 4.218-4.7 4.218-4.497 4.183-4.315 4.114-4.154 4.044-3.994 3.915-3.847 3.728-3.713 3.54-3.58 3.283-3.454 2.956-3.336 2.629-3.219 2.203-3.096 1.677-2.967 1.077-2.829 .543-2.673 .077-2.502-.389-2.331-.78-2.117-1.097-1.861-1.413-1.604-1.654-1.294-1.82-.931-1.986-.567-2.069-.123-2.069 .401-2.069 .893-1.974 1.339-1.783 1.74-1.592 2.141-1.33 2.486-.996 2.775-.662 3.064-.26 3.285 .21 3.441 .679 3.595 1.192 3.673 1.748 3.673 2.571 3.673 3.312 3.553 3.97 3.312 4.627 3.072 5.245 2.721 5.822 2.262L4.764 .77C4.25 1.144 3.742 1.43 3.24 1.628 2.737 1.826 2.229 1.925 1.716 1.925 1.138 1.925 .689 1.794 .369 1.532 .048 1.27-.113 .952-.113 .578-.113 .353-.075 .16 0 0" fill="#ee5a4b"/>
<path transform="matrix(1,0,0,-1,266.9185,274.7038)" d="M0 0C-.187 .486-.449 .911-.786 1.275-1.123 1.638-1.527 1.927-1.997 2.141-2.468 2.355-2.981 2.462-3.537 2.462-4.093 2.462-4.603 2.358-5.069 2.149-5.534 1.941-5.932 1.657-6.264 1.299-6.595 .941-6.854 .519-7.041 .032-7.229-.455-7.322-.97-7.322-1.516-7.322-2.061-7.229-2.577-7.041-3.064-6.854-3.55-6.592-3.975-6.256-4.339-5.919-4.702-5.515-4.991-5.045-5.205-4.574-5.419-4.061-5.526-3.505-5.526-2.949-5.526-2.438-5.422-1.973-5.213-1.508-5.004-1.11-4.721-.778-4.363-.447-4.005-.187-3.583 0-3.096 .187-2.609 .281-2.093 .281-1.548 .281-1.003 .187-.487 0 0M1.917-3.761C1.628-4.467 1.221-5.085 .698-5.614 .174-6.143-.447-6.563-1.163-6.873-1.879-7.183-2.671-7.338-3.537-7.338-4.403-7.338-5.194-7.186-5.911-6.881-6.627-6.576-7.242-6.162-7.755-5.638-8.268-5.114-8.669-4.499-8.958-3.793-9.247-3.087-9.391-2.339-9.391-1.548-9.391-.757-9.247-.008-8.958 .698-8.669 1.404-8.263 2.021-7.739 2.55-7.215 3.08-6.595 3.499-5.879 3.809-5.162 4.119-4.371 4.275-3.505 4.275-2.639 4.275-1.847 4.122-1.131 3.817-.415 3.513 .2 3.098 .714 2.574 1.227 2.05 1.628 1.436 1.917 .73 2.205 .024 2.35-.725 2.35-1.516 2.35-2.307 2.205-3.055 1.917-3.761" fill="#ee5a4b"/>
<path transform="matrix(1,0,0,-1,271.6584,270.6217)" d="M0 0H1.957V-9.447H7.859V-11.228H0Z" fill="#ee5a4b"/>
<path transform="matrix(1,0,0,-1,290.6974,276.9896)" d="M0 0C0-.834-.115-1.567-.345-2.197-.575-2.828-.898-3.355-1.315-3.777-1.732-4.2-2.238-4.515-2.831-4.724-3.424-4.932-4.09-5.037-4.828-5.037-5.555-5.037-6.213-4.932-6.801-4.724-7.389-4.515-7.892-4.202-8.309-3.785-8.726-3.368-9.046-2.852-9.271-2.238-9.496-1.623-9.608-.909-9.608-.096V6.368H-7.651V-.016C-7.651-1.064-7.398-1.861-6.893-2.406-6.388-2.951-5.689-3.224-4.796-3.224-3.914-3.224-3.22-2.962-2.715-2.438-2.21-1.914-1.957-1.133-1.957-.096V6.368H0Z" fill="#ee5a4b"/>
<path transform="matrix(1,0,0,-1,298.1559,281.8495)" d="M0 0H-1.989V9.399H-5.55V11.228H3.561V9.399H0Z" fill="#ee5a4b"/>
<path transform="matrix(1,0,0,-1,0,500)" d="M305.871 218.151H303.914V229.379H305.871Z" fill="#ee5a4b"/>
<path transform="matrix(1,0,0,-1,317.7806,274.7038)" d="M0 0C-.187 .486-.449 .911-.786 1.275-1.123 1.638-1.527 1.927-1.997 2.141-2.468 2.355-2.981 2.462-3.537 2.462-4.093 2.462-4.603 2.358-5.069 2.149-5.534 1.941-5.932 1.657-6.264 1.299-6.595 .941-6.854 .519-7.041 .032-7.229-.455-7.322-.97-7.322-1.516-7.322-2.061-7.229-2.577-7.041-3.064-6.854-3.55-6.592-3.975-6.256-4.339-5.919-4.702-5.515-4.991-5.045-5.205-4.574-5.419-4.061-5.526-3.505-5.526-2.949-5.526-2.438-5.422-1.973-5.213-1.508-5.004-1.11-4.721-.778-4.363-.447-4.005-.187-3.583 0-3.096 .187-2.609 .281-2.093 .281-1.548 .281-1.003 .187-.487 0 0M1.917-3.761C1.628-4.467 1.221-5.085 .698-5.614 .174-6.143-.447-6.563-1.163-6.873-1.879-7.183-2.671-7.338-3.537-7.338-4.403-7.338-5.194-7.186-5.911-6.881-6.627-6.576-7.242-6.162-7.755-5.638-8.268-5.114-8.669-4.499-8.958-3.793-9.247-3.087-9.391-2.339-9.391-1.548-9.391-.757-9.247-.008-8.958 .698-8.669 1.404-8.263 2.021-7.739 2.55-7.215 3.08-6.595 3.499-5.879 3.809-5.162 4.119-4.371 4.275-3.505 4.275-2.639 4.275-1.847 4.122-1.131 3.817-.415 3.513 .2 3.098 .714 2.574 1.227 2.05 1.628 1.436 1.917 .73 2.205 .024 2.35-.725 2.35-1.516 2.35-2.307 2.205-3.055 1.917-3.761" fill="#ee5a4b"/>
<path transform="matrix(1,0,0,-1,330.3478,270.6217)" d="M0 0H1.957V-11.228H.308L-5.871-3.24V-11.228H-7.827V0H-6.003L0-7.763Z" fill="#ee5a4b"/>
<path transform="matrix(1,0,0,-1,204.8423,250.0002)" d="M0 0C0-8.258-6.694-14.952-14.952-14.952-23.21-14.952-29.904-8.258-29.904 0-29.904 8.258-23.21 14.952-14.952 14.952-6.694 14.952 0 8.258 0 0" fill="#ee5a4b"/>
<path transform="matrix(1,0,0,-1,203.6794,265.6303)" d="M0 0C-5.408 4.09-8.461 8.788-6.966 11.083-5.475 13.392 .089 12.497 6.04 9.188 4.875 5.599 2.764 2.439 0 0M18.442 10.389C17.901 7 16.45 3.53 15.504 1.52 17.523-1.022 18.325-3.347 17.405-4.762 16.2-6.623 12.331-6.394 7.748-4.492 10.03-2.052 11.903 .774 13.255 3.881 13.255 3.88 13.256 3.88 13.256 3.879 13.266 3.901 13.274 3.923 13.284 3.945 13.315 4.016 13.344 4.088 13.374 4.16 13.445 4.329 13.515 4.498 13.583 4.668 14.942 8.058 15.693 11.758 15.693 15.635 15.693 20.708 14.414 25.484 12.153 29.647L15.461 31.978C15.835 32.242 15.925 32.758 15.661 33.132L12.588 37.493C12.339 37.847 11.859 37.949 11.488 37.728L7.902 35.593C6.525 37.096 4.986 38.455 3.321 39.643L5.274 43.284C5.49 43.687 5.338 44.189 4.935 44.405L.234 46.927C-.148 47.131-.622 47.008-.855 46.643L-3.113 43.114C-3.114 43.115-3.116 43.115-3.118 43.116-5.38 43.999-7.777 44.603-10.274 44.9V44.901 48.997C-10.274 49.454-10.645 49.825-11.103 49.825H-16.438C-16.87 49.825-17.23 49.492-17.263 49.06L-17.586 44.864C-20.397 44.503-23.092 43.746-25.596 42.647-25.598 42.647-25.599 42.646-25.601 42.645L-27.683 46.178C-27.915 46.572-28.423 46.703-28.817 46.471L-33.413 43.761C-33.786 43.542-33.926 43.072-33.736 42.683L-31.882 38.902C-31.884 38.901-31.886 38.899-31.888 38.898-34.086 37.195-36.032 35.177-37.663 32.925L-41.248 34.909C-41.648 35.131-42.152 34.986-42.374 34.586L-44.958 29.918C-45.167 29.54-45.05 29.063-44.688 28.825L-41.19 26.521C-42.207 23.981-42.874 21.261-43.136 18.424L-47.213 18.314C-47.67 18.301-48.03 17.921-48.018 17.463L-47.874 12.13C-47.862 11.698-47.519 11.347-47.087 11.325L-42.92 11.118C-42.496 8.307-41.667 5.622-40.496 3.135L-43.924 .988C-44.311 .745-44.429 .234-44.186-.154L-41.353-4.675C-41.123-5.041-40.65-5.169-40.267-4.968L-36.598-3.045C-34.824-5.205-32.754-7.113-30.441-8.698L-32.292-12.268C-32.503-12.674-32.345-13.173-31.939-13.384L-27.203-15.841C-26.818-16.04-26.346-15.91-26.118-15.542L-23.954-12.055C-21.369-13-18.622-13.594-15.758-13.775L-15.541-17.781C-15.517-18.237-15.126-18.588-14.67-18.563L-9.342-18.274C-8.91-18.251-8.569-17.899-8.559-17.466L-8.466-13.37C-8.465-13.37-8.464-13.37-8.462-13.37-6.525-13.009-4.65-12.468-2.865-11.756-6.416-9.665-9.589-6.339-10.806-4.997-11.779-5.141-12.771-5.213-13.789-5.213-25.299-5.213-34.637 4.116-34.637 15.635-34.637 27.145-25.299 36.473-13.789 36.473-3.051 36.473 5.78 28.365 6.928 17.942-1.785 21.52-10.289 20.771-13.681 15.554-16.746 10.84-14.772 3.782-9.337-2.338-9.147-2.554-8.958-2.77-8.751-2.978-8.347-3.408-7.922-3.827-7.486-4.241-7.493-4.244-7.5-4.246-7.507-4.248-7.261-4.481-7.01-4.707-6.758-4.93-6.648-5.029-6.537-5.126-6.425-5.222-6.417-5.229-6.409-5.235-6.401-5.241-6.006-5.58-5.607-5.904-5.206-6.217-4.251-6.99-3.253-7.739-2.18-8.44-.477-9.548 1.263-10.486 3.002-11.252 11.998-15.217 20.93-14.596 24.427-9.215 27.78-4.059 25.103 3.909 18.442 10.389" fill="#192b4c"/>
</g>
<g id="layer_1" data-name="Layer 3">
</g>
</g>
</svg>
