<svg width="20" height="18" viewBox="0 0 20 18" fill="none" xmlns="http://www.w3.org/2000/svg">
<path d="M18.1818 2.45455H9.09091L8.18182 0H1.81818C0.818182 0 0 0.736364 0 1.63636V13.9091C0 14.8091 0.818182 15.5455 1.81818 15.5455H9.09091L10 18H18.1818C19.1818 18 20 17.2636 20 16.3636V4.09091C20 3.19091 19.1818 2.45455 18.1818 2.45455ZM5.45455 12.2727C2.94545 12.2727 0.909091 10.44 0.909091 8.18182C0.909091 5.92364 2.94545 4.09091 5.45455 4.09091C6.68182 4.09091 7.70909 4.5 8.5 5.15455L7.3 6.19364C6.95455 5.89909 6.35455 5.55545 5.45455 5.55545C3.87273 5.55545 2.59091 6.73364 2.59091 8.18182C2.59091 9.63 3.87273 10.8082 5.45455 10.8082C7.28182 10.8082 8.03636 9.63 8.10909 8.83636H5.45455V7.43727H9.70909C9.77273 7.69091 9.81818 7.93636 9.81818 8.27182C9.81818 10.6118 8.08182 12.2727 5.45455 12.2727ZM11.0636 7.83818H14.4273C14.0364 8.86091 13.4182 9.82636 12.5636 10.6773C12.2818 10.3909 12.0182 10.0882 11.7818 9.77727L11.0636 7.83818ZM18.6364 15.9545C18.6364 16.4045 18.2273 16.7727 17.7273 16.7727H11.8182L13.6364 14.7273L12.6909 12.1909L15.5091 14.7273L16.3455 13.9745L13.3455 11.3155L13.3636 11.2991C14.3909 10.2764 15.1182 9.09818 15.5455 7.84636H17.2727V6.78273H13.1545V5.72727H11.9818V6.78273H10.6727L9.50909 3.68182H17.7273C18.2273 3.68182 18.6364 4.05 18.6364 4.5V15.9545Z" fill="white"/>
</svg>
